<mxfile host="app.diagrams.net" modified="2023-11-27T12:28:28.014Z" agent="Mozilla/5.0 (Windows NT 10.0; Win64; x64) AppleWebKit/537.36 (KHTML, like Gecko) Chrome/119.0.0.0 Safari/537.36" etag="fO7Jqr3KQCTPSVtB4a8s" version="22.1.4" type="github">
  <diagram name="Page-1" id="4fc8d65c-f3f6-feb3-4d1c-02f59d9f9886">
    <mxGraphModel dx="361" dy="207" grid="1" gridSize="10" guides="1" tooltips="1" connect="1" arrows="1" fold="1" page="1" pageScale="1" pageWidth="826" pageHeight="1169" background="none" math="0" shadow="0">
      <root>
        <mxCell id="0" />
        <mxCell id="1" parent="0" />
        <mxCell id="2" value="Diseño" style="whiteSpace=wrap;strokeWidth=2" parent="1" vertex="1">
          <mxGeometry x="36.458333333333236" y="110" width="120" height="60" as="geometry" />
        </mxCell>
        <mxCell id="8" value="Pagina web Incompleta" style="whiteSpace=wrap;strokeWidth=3" parent="1" vertex="1">
          <mxGeometry x="680" y="250" width="120" height="60" as="geometry" />
        </mxCell>
        <mxCell id="9" value="" style="edgeStyle=none;strokeWidth=4" parent="1" target="8" edge="1">
          <mxGeometry width="100" height="100" relative="1" as="geometry">
            <mxPoint x="120" y="280" as="sourcePoint" />
            <mxPoint x="240" y="230" as="targetPoint" />
          </mxGeometry>
        </mxCell>
        <mxCell id="12" value="" style="edgeStyle=none;exitX=0.5;exitY=1;strokeWidth=3" parent="1" source="2" edge="1">
          <mxGeometry width="100" height="100" relative="1" as="geometry">
            <mxPoint x="96.45833333333323" y="190" as="sourcePoint" />
            <mxPoint x="156.45833333333323" y="280" as="targetPoint" />
          </mxGeometry>
        </mxCell>
        <mxCell id="16" value="" style="edgeStyle=none;endArrow=none;strokeWidth=2" parent="1" edge="1">
          <mxGeometry width="100" height="100" relative="1" as="geometry">
            <mxPoint x="46.458333333333236" y="190" as="sourcePoint" />
            <mxPoint x="106.45833333333323" y="190" as="targetPoint" />
          </mxGeometry>
        </mxCell>
        <mxCell id="17" value="" style="edgeStyle=none;endArrow=none;strokeWidth=2" parent="1" edge="1">
          <mxGeometry width="100" height="100" relative="1" as="geometry">
            <mxPoint x="64.45833333333323" y="221" as="sourcePoint" />
            <mxPoint x="124.45833333333323" y="221" as="targetPoint" />
          </mxGeometry>
        </mxCell>
        <mxCell id="18" value="" style="edgeStyle=none;endArrow=none;strokeWidth=2" parent="1" edge="1">
          <mxGeometry width="100" height="100" relative="1" as="geometry">
            <mxPoint x="83.45833333333323" y="252" as="sourcePoint" />
            <mxPoint x="143.45833333333323" y="252" as="targetPoint" />
          </mxGeometry>
        </mxCell>
        <mxCell id="19" value="" style="edgeStyle=none;endArrow=none;strokeWidth=2" parent="1" edge="1">
          <mxGeometry width="100" height="100" relative="1" as="geometry">
            <mxPoint x="112.45833333333323" y="202" as="sourcePoint" />
            <mxPoint x="172.45833333333323" y="202" as="targetPoint" />
          </mxGeometry>
        </mxCell>
        <mxCell id="20" value="" style="edgeStyle=none;endArrow=none;strokeWidth=2" parent="1" edge="1">
          <mxGeometry width="100" height="100" relative="1" as="geometry">
            <mxPoint x="127.45833333333323" y="230" as="sourcePoint" />
            <mxPoint x="187.45833333333323" y="230" as="targetPoint" />
          </mxGeometry>
        </mxCell>
        <mxCell id="21" value="" style="edgeStyle=none;endArrow=none;strokeWidth=2" parent="1" edge="1">
          <mxGeometry width="100" height="100" relative="1" as="geometry">
            <mxPoint x="146.45833333333323" y="260" as="sourcePoint" />
            <mxPoint x="206.45833333333323" y="260" as="targetPoint" />
          </mxGeometry>
        </mxCell>
        <mxCell id="143" value="Personas" style="whiteSpace=wrap;strokeWidth=2" parent="1" vertex="1">
          <mxGeometry x="260" y="109.99999999999994" width="120" height="60" as="geometry" />
        </mxCell>
        <mxCell id="144" value="Método" style="whiteSpace=wrap;strokeWidth=2" parent="1" vertex="1">
          <mxGeometry x="91" y="399.99999999999994" width="120" height="60" as="geometry" />
        </mxCell>
        <mxCell id="145" value="" style="edgeStyle=none;exitX=0.5;exitY=1;strokeWidth=3" parent="1" source="143" edge="1">
          <mxGeometry width="100" height="100" relative="1" as="geometry">
            <mxPoint x="320" y="189.99999999999991" as="sourcePoint" />
            <mxPoint x="380" y="279.99999999999994" as="targetPoint" />
          </mxGeometry>
        </mxCell>
        <mxCell id="146" value="" style="edgeStyle=none;exitX=0.5;exitY=0;strokeWidth=3" parent="1" edge="1">
          <mxGeometry width="100" height="100" relative="1" as="geometry">
            <mxPoint x="147.99000000000012" y="399.99999999999994" as="sourcePoint" />
            <mxPoint x="207.99" y="279.99999999999994" as="targetPoint" />
          </mxGeometry>
        </mxCell>
        <mxCell id="147" value="" style="edgeStyle=none;endArrow=none;strokeWidth=2" parent="1" edge="1">
          <mxGeometry width="100" height="100" relative="1" as="geometry">
            <mxPoint x="270.0000000000001" y="189.99999999999991" as="sourcePoint" />
            <mxPoint x="330" y="189.99999999999991" as="targetPoint" />
          </mxGeometry>
        </mxCell>
        <mxCell id="148" value="" style="edgeStyle=none;endArrow=none;strokeWidth=2" parent="1" edge="1">
          <mxGeometry width="100" height="100" relative="1" as="geometry">
            <mxPoint x="290" y="225.99999999999991" as="sourcePoint" />
            <mxPoint x="349.9999999999999" y="225.99999999999991" as="targetPoint" />
          </mxGeometry>
        </mxCell>
        <mxCell id="149" value="" style="edgeStyle=none;endArrow=none;strokeWidth=2" parent="1" edge="1">
          <mxGeometry width="100" height="100" relative="1" as="geometry">
            <mxPoint x="310" y="259.99999999999994" as="sourcePoint" />
            <mxPoint x="370.0000000000001" y="259.99999999999994" as="targetPoint" />
          </mxGeometry>
        </mxCell>
        <mxCell id="150" value="" style="edgeStyle=none;endArrow=none;strokeWidth=2" parent="1" edge="1">
          <mxGeometry width="100" height="100" relative="1" as="geometry">
            <mxPoint x="330" y="189.99999999999991" as="sourcePoint" />
            <mxPoint x="390" y="189.99999999999991" as="targetPoint" />
          </mxGeometry>
        </mxCell>
        <mxCell id="151" value="" style="edgeStyle=none;endArrow=none;strokeWidth=2" parent="1" edge="1">
          <mxGeometry width="100" height="100" relative="1" as="geometry">
            <mxPoint x="349.9999999999999" y="225.99999999999991" as="sourcePoint" />
            <mxPoint x="410" y="225.99999999999991" as="targetPoint" />
          </mxGeometry>
        </mxCell>
        <mxCell id="152" value="" style="edgeStyle=none;endArrow=none;strokeWidth=2" parent="1" edge="1">
          <mxGeometry width="100" height="100" relative="1" as="geometry">
            <mxPoint x="370.0000000000001" y="259.99999999999994" as="sourcePoint" />
            <mxPoint x="430" y="259.99999999999994" as="targetPoint" />
          </mxGeometry>
        </mxCell>
        <mxCell id="153" value="" style="edgeStyle=none;endArrow=none;strokeWidth=2" parent="1" edge="1">
          <mxGeometry width="100" height="100" relative="1" as="geometry">
            <mxPoint x="141" y="299.99999999999994" as="sourcePoint" />
            <mxPoint x="201.0000000000001" y="299.99999999999994" as="targetPoint" />
          </mxGeometry>
        </mxCell>
        <mxCell id="154" value="" style="edgeStyle=none;endArrow=none;strokeWidth=2" parent="1" edge="1">
          <mxGeometry width="100" height="100" relative="1" as="geometry">
            <mxPoint x="121" y="339.99999999999994" as="sourcePoint" />
            <mxPoint x="180.9999999999999" y="339.99999999999994" as="targetPoint" />
          </mxGeometry>
        </mxCell>
        <mxCell id="155" value="" style="edgeStyle=none;endArrow=none;strokeWidth=2" parent="1" edge="1">
          <mxGeometry width="100" height="100" relative="1" as="geometry">
            <mxPoint x="101.00000000000011" y="379.99999999999994" as="sourcePoint" />
            <mxPoint x="161" y="379.99999999999994" as="targetPoint" />
          </mxGeometry>
        </mxCell>
        <mxCell id="156" value="" style="edgeStyle=none;endArrow=none;strokeWidth=2" parent="1" edge="1">
          <mxGeometry width="100" height="100" relative="1" as="geometry">
            <mxPoint x="201.0000000000001" y="299.99999999999994" as="sourcePoint" />
            <mxPoint x="261" y="299.99999999999994" as="targetPoint" />
          </mxGeometry>
        </mxCell>
        <mxCell id="157" value="" style="edgeStyle=none;endArrow=none;strokeWidth=2" parent="1" edge="1">
          <mxGeometry width="100" height="100" relative="1" as="geometry">
            <mxPoint x="180.9999999999999" y="339.99999999999994" as="sourcePoint" />
            <mxPoint x="241" y="339.99999999999994" as="targetPoint" />
          </mxGeometry>
        </mxCell>
        <mxCell id="158" value="" style="edgeStyle=none;endArrow=none;strokeWidth=2" parent="1" edge="1">
          <mxGeometry width="100" height="100" relative="1" as="geometry">
            <mxPoint x="161" y="379.99999999999994" as="sourcePoint" />
            <mxPoint x="221" y="379.99999999999994" as="targetPoint" />
          </mxGeometry>
        </mxCell>
        <mxCell id="167" value="" style="edgeStyle=none;endArrow=none;" parent="1" edge="1">
          <mxGeometry width="100" height="100" relative="1" as="geometry">
            <mxPoint x="201.0000000000001" y="379.99999999999994" as="sourcePoint" />
            <mxPoint x="221" y="359.99999999999994" as="targetPoint" />
          </mxGeometry>
        </mxCell>
        <mxCell id="168" value="" style="edgeStyle=none;endArrow=none;" parent="1" edge="1">
          <mxGeometry width="100" height="100" relative="1" as="geometry">
            <mxPoint x="171" y="379.99999999999994" as="sourcePoint" />
            <mxPoint x="191" y="359.99999999999994" as="targetPoint" />
          </mxGeometry>
        </mxCell>
        <mxCell id="169" value="" style="edgeStyle=none;endArrow=none;" parent="1" edge="1">
          <mxGeometry width="100" height="100" relative="1" as="geometry">
            <mxPoint x="221" y="339.99999999999994" as="sourcePoint" />
            <mxPoint x="241" y="319.99999999999994" as="targetPoint" />
          </mxGeometry>
        </mxCell>
        <mxCell id="170" value="" style="edgeStyle=none;endArrow=none;" parent="1" edge="1">
          <mxGeometry width="100" height="100" relative="1" as="geometry">
            <mxPoint x="191" y="339.99999999999994" as="sourcePoint" />
            <mxPoint x="211" y="319.99999999999994" as="targetPoint" />
          </mxGeometry>
        </mxCell>
        <mxCell id="171" value="" style="edgeStyle=none;endArrow=none;" parent="1" edge="1">
          <mxGeometry width="100" height="100" relative="1" as="geometry">
            <mxPoint x="151.0000000000001" y="359.99999999999994" as="sourcePoint" />
            <mxPoint x="171" y="339.99999999999994" as="targetPoint" />
          </mxGeometry>
        </mxCell>
        <mxCell id="172" value="" style="edgeStyle=none;endArrow=none;" parent="1" edge="1">
          <mxGeometry width="100" height="100" relative="1" as="geometry">
            <mxPoint x="151.0000000000001" y="359.99999999999994" as="sourcePoint" />
            <mxPoint x="171" y="339.99999999999994" as="targetPoint" />
          </mxGeometry>
        </mxCell>
        <mxCell id="173" value="" style="edgeStyle=none;endArrow=none;" parent="1" edge="1">
          <mxGeometry width="100" height="100" relative="1" as="geometry">
            <mxPoint x="121" y="359.99999999999994" as="sourcePoint" />
            <mxPoint x="141" y="339.99999999999994" as="targetPoint" />
          </mxGeometry>
        </mxCell>
        <mxCell id="174" value="" style="edgeStyle=none;endArrow=none;" parent="1" edge="1">
          <mxGeometry width="100" height="100" relative="1" as="geometry">
            <mxPoint x="171" y="319.99999999999994" as="sourcePoint" />
            <mxPoint x="191" y="299.99999999999994" as="targetPoint" />
          </mxGeometry>
        </mxCell>
        <mxCell id="175" value="" style="edgeStyle=none;endArrow=none;" parent="1" edge="1">
          <mxGeometry width="100" height="100" relative="1" as="geometry">
            <mxPoint x="141" y="319.99999999999994" as="sourcePoint" />
            <mxPoint x="161" y="299.99999999999994" as="targetPoint" />
          </mxGeometry>
        </mxCell>
        <mxCell id="179" value="Detail" style="text;spacingTop=-5;fontSize=8;align=center;verticalAlign=middle;points=[]" parent="1" vertex="1">
          <mxGeometry x="111" y="290.00000000000017" width="30" height="19.999999999999886" as="geometry" />
        </mxCell>
        <mxCell id="180" value="Detail" style="text;spacingTop=-5;fontSize=8;align=center;verticalAlign=middle;points=[]" parent="1" vertex="1">
          <mxGeometry x="90.99999999999994" y="339.9999999999998" width="30" height="19.999999999999886" as="geometry" />
        </mxCell>
        <mxCell id="181" value="Detail" style="text;spacingTop=-5;fontSize=8;align=center;verticalAlign=middle;points=[]" parent="1" vertex="1">
          <mxGeometry x="71.00000000000011" y="380.00000000000017" width="30" height="19.999999999999886" as="geometry" />
        </mxCell>
        <mxCell id="186" value="Sub-detail" style="text;spacingTop=-5;fontSize=6;align=center;verticalAlign=middle;points=[]" parent="1" vertex="1">
          <mxGeometry x="116" y="320.4166666666665" width="30" height="19.999999999999886" as="geometry" />
        </mxCell>
        <mxCell id="187" value="Sub-detail" style="text;spacingTop=-5;fontSize=6;align=center;verticalAlign=middle;points=[]" parent="1" vertex="1">
          <mxGeometry x="150.99999999999983" y="320.41666666666663" width="30" height="19.999999999999886" as="geometry" />
        </mxCell>
        <mxCell id="188" value="Sub-detail" style="text;spacingTop=-5;fontSize=6;align=center;verticalAlign=middle;points=[]" parent="1" vertex="1">
          <mxGeometry x="94.05555555555554" y="360.9722222222221" width="30" height="19.999999999999886" as="geometry" />
        </mxCell>
        <mxCell id="189" value="Sub-detail" style="text;spacingTop=-5;fontSize=6;align=center;verticalAlign=middle;points=[]" parent="1" vertex="1">
          <mxGeometry x="129.05555555555543" y="360.97222222222223" width="30" height="19.999999999999886" as="geometry" />
        </mxCell>
        <mxCell id="194" value="Sub-detail" style="text;spacingTop=-5;fontSize=6;align=center;verticalAlign=middle;points=[]" parent="1" vertex="1">
          <mxGeometry x="201.83333333333331" y="308.33333333333326" width="30" height="19.999999999999886" as="geometry" />
        </mxCell>
        <mxCell id="195" value="Sub-detail" style="text;spacingTop=-5;fontSize=6;align=center;verticalAlign=middle;points=[]" parent="1" vertex="1">
          <mxGeometry x="236.83333333333314" y="308.33333333333337" width="30" height="19.999999999999886" as="geometry" />
        </mxCell>
        <mxCell id="196" value="Sub-detail" style="text;spacingTop=-5;fontSize=6;align=center;verticalAlign=middle;points=[]" parent="1" vertex="1">
          <mxGeometry x="180.58333333333331" y="345.4166666666666" width="30" height="19.999999999999886" as="geometry" />
        </mxCell>
        <mxCell id="197" value="Sub-detail" style="text;spacingTop=-5;fontSize=6;align=center;verticalAlign=middle;points=[]" parent="1" vertex="1">
          <mxGeometry x="215.58333333333314" y="345.4166666666667" width="30" height="19.999999999999886" as="geometry" />
        </mxCell>
        <mxCell id="201" value="Detail" style="text;spacingTop=-5;fontSize=8;align=center;verticalAlign=middle;points=[]" parent="1" vertex="1">
          <mxGeometry x="260.0033333333333" y="292.5022222222224" width="30" height="19.999999999999886" as="geometry" />
        </mxCell>
        <mxCell id="202" value="Detail" style="text;spacingTop=-5;fontSize=8;align=center;verticalAlign=middle;points=[]" parent="1" vertex="1">
          <mxGeometry x="240.58333333333326" y="340.972222222222" width="30" height="19.999999999999886" as="geometry" />
        </mxCell>
        <mxCell id="203" value="Detail" style="text;spacingTop=-5;fontSize=8;align=center;verticalAlign=middle;points=[]" parent="1" vertex="1">
          <mxGeometry x="220.58333333333337" y="380.9722222222224" width="30" height="19.999999999999886" as="geometry" />
        </mxCell>
        <mxCell id="204" value="Desarrollo" style="whiteSpace=wrap;strokeWidth=2" parent="1" vertex="1">
          <mxGeometry x="475.8333333333331" y="111.52777777777752" width="120" height="60" as="geometry" />
        </mxCell>
        <mxCell id="205" value="Herramientas" style="whiteSpace=wrap;strokeWidth=2" parent="1" vertex="1">
          <mxGeometry x="400.8333333333331" y="401.52777777777754" width="120" height="60" as="geometry" />
        </mxCell>
        <mxCell id="206" value="" style="edgeStyle=none;exitX=0.5;exitY=1;strokeWidth=3" parent="1" source="204" edge="1">
          <mxGeometry width="100" height="100" relative="1" as="geometry">
            <mxPoint x="535.8333333333331" y="191.52777777777752" as="sourcePoint" />
            <mxPoint x="595.8333333333331" y="281.52777777777754" as="targetPoint" />
          </mxGeometry>
        </mxCell>
        <mxCell id="207" value="" style="edgeStyle=none;exitX=0.5;exitY=0;strokeWidth=3" parent="1" edge="1">
          <mxGeometry width="100" height="100" relative="1" as="geometry">
            <mxPoint x="460.83333333333326" y="401.52777777777754" as="sourcePoint" />
            <mxPoint x="520.8333333333331" y="281.52777777777754" as="targetPoint" />
          </mxGeometry>
        </mxCell>
        <mxCell id="208" value="" style="edgeStyle=none;endArrow=none;strokeWidth=2" parent="1" edge="1">
          <mxGeometry width="100" height="100" relative="1" as="geometry">
            <mxPoint x="485.8333333333332" y="191.52777777777752" as="sourcePoint" />
            <mxPoint x="545.8333333333331" y="191.52777777777752" as="targetPoint" />
          </mxGeometry>
        </mxCell>
        <mxCell id="209" value="" style="edgeStyle=none;endArrow=none;strokeWidth=2" parent="1" edge="1">
          <mxGeometry width="100" height="100" relative="1" as="geometry">
            <mxPoint x="505.8333333333331" y="227.52777777777752" as="sourcePoint" />
            <mxPoint x="565.833333333333" y="227.52777777777752" as="targetPoint" />
          </mxGeometry>
        </mxCell>
        <mxCell id="210" value="" style="edgeStyle=none;endArrow=none;strokeWidth=2" parent="1" edge="1">
          <mxGeometry width="100" height="100" relative="1" as="geometry">
            <mxPoint x="525.8333333333331" y="261.52777777777754" as="sourcePoint" />
            <mxPoint x="585.8333333333333" y="261.52777777777754" as="targetPoint" />
          </mxGeometry>
        </mxCell>
        <mxCell id="211" value="" style="edgeStyle=none;endArrow=none;strokeWidth=2" parent="1" edge="1">
          <mxGeometry width="100" height="100" relative="1" as="geometry">
            <mxPoint x="545.8333333333331" y="191.52777777777752" as="sourcePoint" />
            <mxPoint x="605.8333333333331" y="191.52777777777752" as="targetPoint" />
          </mxGeometry>
        </mxCell>
        <mxCell id="212" value="" style="edgeStyle=none;endArrow=none;strokeWidth=2" parent="1" edge="1">
          <mxGeometry width="100" height="100" relative="1" as="geometry">
            <mxPoint x="565.833333333333" y="227.52777777777752" as="sourcePoint" />
            <mxPoint x="625.8333333333331" y="227.52777777777752" as="targetPoint" />
          </mxGeometry>
        </mxCell>
        <mxCell id="213" value="" style="edgeStyle=none;endArrow=none;strokeWidth=2" parent="1" edge="1">
          <mxGeometry width="100" height="100" relative="1" as="geometry">
            <mxPoint x="585.8333333333333" y="261.52777777777754" as="sourcePoint" />
            <mxPoint x="645.8333333333331" y="261.52777777777754" as="targetPoint" />
          </mxGeometry>
        </mxCell>
        <mxCell id="214" value="" style="edgeStyle=none;endArrow=none;strokeWidth=2" parent="1" edge="1">
          <mxGeometry width="100" height="100" relative="1" as="geometry">
            <mxPoint x="450.83333333333314" y="301.52777777777754" as="sourcePoint" />
            <mxPoint x="510.83333333333326" y="301.52777777777754" as="targetPoint" />
          </mxGeometry>
        </mxCell>
        <mxCell id="215" value="" style="edgeStyle=none;endArrow=none;strokeWidth=2" parent="1" edge="1">
          <mxGeometry width="100" height="100" relative="1" as="geometry">
            <mxPoint x="430.8333333333331" y="341.52777777777754" as="sourcePoint" />
            <mxPoint x="490.83333333333303" y="341.52777777777754" as="targetPoint" />
          </mxGeometry>
        </mxCell>
        <mxCell id="216" value="" style="edgeStyle=none;endArrow=none;strokeWidth=2" parent="1" edge="1">
          <mxGeometry width="100" height="100" relative="1" as="geometry">
            <mxPoint x="410.8333333333332" y="381.52777777777754" as="sourcePoint" />
            <mxPoint x="470.83333333333314" y="381.52777777777754" as="targetPoint" />
          </mxGeometry>
        </mxCell>
        <mxCell id="217" value="" style="edgeStyle=none;endArrow=none;strokeWidth=2" parent="1" edge="1">
          <mxGeometry width="100" height="100" relative="1" as="geometry">
            <mxPoint x="510.83333333333326" y="301.52777777777754" as="sourcePoint" />
            <mxPoint x="570.8333333333331" y="301.52777777777754" as="targetPoint" />
          </mxGeometry>
        </mxCell>
        <mxCell id="218" value="" style="edgeStyle=none;endArrow=none;strokeWidth=2" parent="1" edge="1">
          <mxGeometry width="100" height="100" relative="1" as="geometry">
            <mxPoint x="490.83333333333303" y="341.52777777777754" as="sourcePoint" />
            <mxPoint x="550.8333333333331" y="341.52777777777754" as="targetPoint" />
          </mxGeometry>
        </mxCell>
        <mxCell id="219" value="" style="edgeStyle=none;endArrow=none;strokeWidth=2" parent="1" edge="1">
          <mxGeometry width="100" height="100" relative="1" as="geometry">
            <mxPoint x="470.83333333333314" y="381.52777777777754" as="sourcePoint" />
            <mxPoint x="530.8333333333331" y="381.52777777777754" as="targetPoint" />
          </mxGeometry>
        </mxCell>
        <mxCell id="220" value="" style="edgeStyle=none;endArrow=none;" parent="1" edge="1">
          <mxGeometry width="100" height="100" relative="1" as="geometry">
            <mxPoint x="515.833333333333" y="211.5277777777774" as="sourcePoint" />
            <mxPoint x="535.8333333333333" y="191.52777777777752" as="targetPoint" />
          </mxGeometry>
        </mxCell>
        <mxCell id="221" value="" style="edgeStyle=none;endArrow=none;" parent="1" edge="1">
          <mxGeometry width="100" height="100" relative="1" as="geometry">
            <mxPoint x="485.8333333333332" y="211.5277777777774" as="sourcePoint" />
            <mxPoint x="505.8333333333331" y="191.52777777777752" as="targetPoint" />
          </mxGeometry>
        </mxCell>
        <mxCell id="222" value="" style="edgeStyle=none;endArrow=none;" parent="1" edge="1">
          <mxGeometry width="100" height="100" relative="1" as="geometry">
            <mxPoint x="595.8333333333331" y="261.52777777777754" as="sourcePoint" />
            <mxPoint x="615.833333333333" y="241.52777777777752" as="targetPoint" />
          </mxGeometry>
        </mxCell>
        <mxCell id="223" value="" style="edgeStyle=none;endArrow=none;" parent="1" edge="1">
          <mxGeometry width="100" height="100" relative="1" as="geometry">
            <mxPoint x="625.8333333333331" y="261.52777777777754" as="sourcePoint" />
            <mxPoint x="645.8333333333331" y="241.52777777777752" as="targetPoint" />
          </mxGeometry>
        </mxCell>
        <mxCell id="224" value="" style="edgeStyle=none;endArrow=none;" parent="1" edge="1">
          <mxGeometry width="100" height="100" relative="1" as="geometry">
            <mxPoint x="575.3510802469135" y="227.89737654320962" as="sourcePoint" />
            <mxPoint x="595.3510802469134" y="207.8973765432095" as="targetPoint" />
          </mxGeometry>
        </mxCell>
        <mxCell id="225" value="" style="edgeStyle=none;endArrow=none;" parent="1" edge="1">
          <mxGeometry width="100" height="100" relative="1" as="geometry">
            <mxPoint x="605.3510802469133" y="227.89737654320962" as="sourcePoint" />
            <mxPoint x="625.3510802469135" y="207.8973765432095" as="targetPoint" />
          </mxGeometry>
        </mxCell>
        <mxCell id="226" value="" style="edgeStyle=none;endArrow=none;" parent="1" edge="1">
          <mxGeometry width="100" height="100" relative="1" as="geometry">
            <mxPoint x="535.3510802469134" y="247.8973765432094" as="sourcePoint" />
            <mxPoint x="555.3510802469133" y="227.89737654320962" as="targetPoint" />
          </mxGeometry>
        </mxCell>
        <mxCell id="227" value="" style="edgeStyle=none;endArrow=none;" parent="1" edge="1">
          <mxGeometry width="100" height="100" relative="1" as="geometry">
            <mxPoint x="505.3510802469132" y="247.8973765432094" as="sourcePoint" />
            <mxPoint x="525.3510802469135" y="227.89737654320962" as="targetPoint" />
          </mxGeometry>
        </mxCell>
        <mxCell id="228" value="" style="edgeStyle=none;endArrow=none;" parent="1" edge="1">
          <mxGeometry width="100" height="100" relative="1" as="geometry">
            <mxPoint x="510.83333333333326" y="381.52777777777754" as="sourcePoint" />
            <mxPoint x="530.8333333333331" y="361.52777777777754" as="targetPoint" />
          </mxGeometry>
        </mxCell>
        <mxCell id="229" value="" style="edgeStyle=none;endArrow=none;" parent="1" edge="1">
          <mxGeometry width="100" height="100" relative="1" as="geometry">
            <mxPoint x="480.83333333333314" y="381.52777777777754" as="sourcePoint" />
            <mxPoint x="500.83333333333314" y="361.52777777777754" as="targetPoint" />
          </mxGeometry>
        </mxCell>
        <mxCell id="230" value="" style="edgeStyle=none;endArrow=none;" parent="1" edge="1">
          <mxGeometry width="100" height="100" relative="1" as="geometry">
            <mxPoint x="530.8333333333331" y="341.52777777777754" as="sourcePoint" />
            <mxPoint x="550.8333333333331" y="321.52777777777754" as="targetPoint" />
          </mxGeometry>
        </mxCell>
        <mxCell id="231" value="" style="edgeStyle=none;endArrow=none;" parent="1" edge="1">
          <mxGeometry width="100" height="100" relative="1" as="geometry">
            <mxPoint x="500.83333333333314" y="341.52777777777754" as="sourcePoint" />
            <mxPoint x="520.8333333333331" y="321.52777777777754" as="targetPoint" />
          </mxGeometry>
        </mxCell>
        <mxCell id="232" value="" style="edgeStyle=none;endArrow=none;" parent="1" edge="1">
          <mxGeometry width="100" height="100" relative="1" as="geometry">
            <mxPoint x="460.83333333333326" y="361.52777777777754" as="sourcePoint" />
            <mxPoint x="480.83333333333314" y="341.52777777777754" as="targetPoint" />
          </mxGeometry>
        </mxCell>
        <mxCell id="233" value="" style="edgeStyle=none;endArrow=none;" parent="1" edge="1">
          <mxGeometry width="100" height="100" relative="1" as="geometry">
            <mxPoint x="460.83333333333326" y="361.52777777777754" as="sourcePoint" />
            <mxPoint x="480.83333333333314" y="341.52777777777754" as="targetPoint" />
          </mxGeometry>
        </mxCell>
        <mxCell id="234" value="" style="edgeStyle=none;endArrow=none;" parent="1" edge="1">
          <mxGeometry width="100" height="100" relative="1" as="geometry">
            <mxPoint x="430.8333333333331" y="361.52777777777754" as="sourcePoint" />
            <mxPoint x="450.83333333333314" y="341.52777777777754" as="targetPoint" />
          </mxGeometry>
        </mxCell>
        <mxCell id="235" value="" style="edgeStyle=none;endArrow=none;" parent="1" edge="1">
          <mxGeometry width="100" height="100" relative="1" as="geometry">
            <mxPoint x="480.83333333333314" y="321.52777777777754" as="sourcePoint" />
            <mxPoint x="500.83333333333314" y="301.52777777777754" as="targetPoint" />
          </mxGeometry>
        </mxCell>
        <mxCell id="236" value="" style="edgeStyle=none;endArrow=none;" parent="1" edge="1">
          <mxGeometry width="100" height="100" relative="1" as="geometry">
            <mxPoint x="450.83333333333314" y="321.52777777777754" as="sourcePoint" />
            <mxPoint x="470.83333333333314" y="301.52777777777754" as="targetPoint" />
          </mxGeometry>
        </mxCell>
        <mxCell id="237" value="Detail" style="text;spacingTop=-5;fontSize=8;align=center;verticalAlign=middle;points=[]" parent="1" vertex="1">
          <mxGeometry x="455.8333333333331" y="181.52777777777757" width="30" height="19.999999999999886" as="geometry" />
        </mxCell>
        <mxCell id="238" value="Detail" style="text;spacingTop=-5;fontSize=8;align=center;verticalAlign=middle;points=[]" parent="1" vertex="1">
          <mxGeometry x="475.8333333333331" y="221.52777777777746" width="30" height="19.999999999999886" as="geometry" />
        </mxCell>
        <mxCell id="239" value="Detail" style="text;spacingTop=-5;fontSize=8;align=center;verticalAlign=middle;points=[]" parent="1" vertex="1">
          <mxGeometry x="495.8333333333331" y="261.52777777777766" width="30" height="19.999999999999886" as="geometry" />
        </mxCell>
        <mxCell id="240" value="Detail" style="text;spacingTop=-5;fontSize=8;align=center;verticalAlign=middle;points=[]" parent="1" vertex="1">
          <mxGeometry x="420.8333333333331" y="291.52777777777777" width="30" height="19.999999999999886" as="geometry" />
        </mxCell>
        <mxCell id="241" value="Detail" style="text;spacingTop=-5;fontSize=8;align=center;verticalAlign=middle;points=[]" parent="1" vertex="1">
          <mxGeometry x="400.83333333333303" y="341.5277777777774" width="30" height="19.999999999999886" as="geometry" />
        </mxCell>
        <mxCell id="242" value="Detail" style="text;spacingTop=-5;fontSize=8;align=center;verticalAlign=middle;points=[]" parent="1" vertex="1">
          <mxGeometry x="455.8333333333332" y="381.52777777777777" width="30" height="19.999999999999886" as="geometry" />
        </mxCell>
        <mxCell id="243" value="Sub-detail" style="text;spacingTop=-5;fontSize=6;align=center;verticalAlign=middle;points=[]" parent="1" vertex="1">
          <mxGeometry x="470.8333333333332" y="211.52777777777746" width="30" height="19.999999999999886" as="geometry" />
        </mxCell>
        <mxCell id="244" value="Sub-detail" style="text;spacingTop=-5;fontSize=6;align=center;verticalAlign=middle;points=[]" parent="1" vertex="1">
          <mxGeometry x="505.8333333333331" y="211.5277777777775" width="30" height="19.999999999999886" as="geometry" />
        </mxCell>
        <mxCell id="245" value="Sub-detail" style="text;spacingTop=-5;fontSize=6;align=center;verticalAlign=middle;points=[]" parent="1" vertex="1">
          <mxGeometry x="483.88888888888863" y="248.05555555555523" width="30" height="19.999999999999886" as="geometry" />
        </mxCell>
        <mxCell id="246" value="Sub-detail" style="text;spacingTop=-5;fontSize=6;align=center;verticalAlign=middle;points=[]" parent="1" vertex="1">
          <mxGeometry x="518.8888888888886" y="248.05555555555534" width="30" height="19.999999999999886" as="geometry" />
        </mxCell>
        <mxCell id="247" value="Sub-detail" style="text;spacingTop=-5;fontSize=6;align=center;verticalAlign=middle;points=[]" parent="1" vertex="1">
          <mxGeometry x="425.8333333333331" y="321.9444444444441" width="30" height="19.999999999999886" as="geometry" />
        </mxCell>
        <mxCell id="248" value="Sub-detail" style="text;spacingTop=-5;fontSize=6;align=center;verticalAlign=middle;points=[]" parent="1" vertex="1">
          <mxGeometry x="460.83333333333303" y="321.94444444444423" width="30" height="19.999999999999886" as="geometry" />
        </mxCell>
        <mxCell id="249" value="Sub-detail" style="text;spacingTop=-5;fontSize=6;align=center;verticalAlign=middle;points=[]" parent="1" vertex="1">
          <mxGeometry x="403.88888888888863" y="362.4999999999997" width="30" height="19.999999999999886" as="geometry" />
        </mxCell>
        <mxCell id="250" value="Sub-detail" style="text;spacingTop=-5;fontSize=6;align=center;verticalAlign=middle;points=[]" parent="1" vertex="1">
          <mxGeometry x="438.8888888888886" y="362.49999999999983" width="30" height="19.999999999999886" as="geometry" />
        </mxCell>
        <mxCell id="251" value="Sub-detail" style="text;spacingTop=-5;fontSize=6;align=center;verticalAlign=middle;points=[]" parent="1" vertex="1">
          <mxGeometry x="567.361111111111" y="195.41666666666632" width="30" height="19.999999999999886" as="geometry" />
        </mxCell>
        <mxCell id="252" value="Sub-detail" style="text;spacingTop=-5;fontSize=6;align=center;verticalAlign=middle;points=[]" parent="1" vertex="1">
          <mxGeometry x="602.3611111111107" y="195.41666666666643" width="30" height="19.999999999999886" as="geometry" />
        </mxCell>
        <mxCell id="253" value="Sub-detail" style="text;spacingTop=-5;fontSize=6;align=center;verticalAlign=middle;points=[]" parent="1" vertex="1">
          <mxGeometry x="582.2222222222221" y="230.41666666666634" width="30" height="19.999999999999886" as="geometry" />
        </mxCell>
        <mxCell id="254" value="Sub-detail" style="text;spacingTop=-5;fontSize=6;align=center;verticalAlign=middle;points=[]" parent="1" vertex="1">
          <mxGeometry x="617.222222222222" y="230.41666666666646" width="30" height="19.999999999999886" as="geometry" />
        </mxCell>
        <mxCell id="255" value="Sub-detail" style="text;spacingTop=-5;fontSize=6;align=center;verticalAlign=middle;points=[]" parent="1" vertex="1">
          <mxGeometry x="511.6666666666665" y="309.86111111111086" width="30" height="19.999999999999886" as="geometry" />
        </mxCell>
        <mxCell id="256" value="Sub-detail" style="text;spacingTop=-5;fontSize=6;align=center;verticalAlign=middle;points=[]" parent="1" vertex="1">
          <mxGeometry x="546.6666666666664" y="309.861111111111" width="30" height="19.999999999999886" as="geometry" />
        </mxCell>
        <mxCell id="257" value="Sub-detail" style="text;spacingTop=-5;fontSize=6;align=center;verticalAlign=middle;points=[]" parent="1" vertex="1">
          <mxGeometry x="490.4166666666665" y="346.9444444444442" width="30" height="19.999999999999886" as="geometry" />
        </mxCell>
        <mxCell id="258" value="Sub-detail" style="text;spacingTop=-5;fontSize=6;align=center;verticalAlign=middle;points=[]" parent="1" vertex="1">
          <mxGeometry x="525.4166666666664" y="346.9444444444443" width="30" height="19.999999999999886" as="geometry" />
        </mxCell>
        <mxCell id="259" value="Detail" style="text;spacingTop=-5;fontSize=8;align=center;verticalAlign=middle;points=[]" parent="1" vertex="1">
          <mxGeometry x="605.4166666666665" y="182.4999999999998" width="30" height="19.999999999999886" as="geometry" />
        </mxCell>
        <mxCell id="260" value="Detail" style="text;spacingTop=-5;fontSize=8;align=center;verticalAlign=middle;points=[]" parent="1" vertex="1">
          <mxGeometry x="625.4166666666665" y="222.4999999999997" width="30" height="19.999999999999886" as="geometry" />
        </mxCell>
        <mxCell id="261" value="Detail" style="text;spacingTop=-5;fontSize=8;align=center;verticalAlign=middle;points=[]" parent="1" vertex="1">
          <mxGeometry x="645.4166666666665" y="256.52777777777743" width="30" height="19.999999999999886" as="geometry" />
        </mxCell>
        <mxCell id="262" value="Detail" style="text;spacingTop=-5;fontSize=8;align=center;verticalAlign=middle;points=[]" parent="1" vertex="1">
          <mxGeometry x="570.4166666666665" y="292.5" width="30" height="19.999999999999886" as="geometry" />
        </mxCell>
        <mxCell id="263" value="Detail" style="text;spacingTop=-5;fontSize=8;align=center;verticalAlign=middle;points=[]" parent="1" vertex="1">
          <mxGeometry x="550.4166666666664" y="342.4999999999996" width="30" height="19.999999999999886" as="geometry" />
        </mxCell>
        <mxCell id="264" value="Detail" style="text;spacingTop=-5;fontSize=8;align=center;verticalAlign=middle;points=[]" parent="1" vertex="1">
          <mxGeometry x="530.4166666666665" y="382.5" width="30" height="19.999999999999886" as="geometry" />
        </mxCell>
      </root>
    </mxGraphModel>
  </diagram>
</mxfile>
